<svg width="68" height="76" viewBox="0 0 68 76" fill="none" xmlns="http://www.w3.org/2000/svg" xmlns:xlink="http://www.w3.org/1999/xlink">
<g filter="url(#filterI3_2798;25_188)">
<path d="M66.775,36.946C66.775,57.781 51.644,74.671 32.98,74.671C14.315,74.671 -0.816,57.781 -0.816,36.946C-0.816,16.112 14.315,-0.778 32.98,-0.778C51.644,-0.778 66.775,16.112 66.775,36.946Z" fill="#FFFFFF"/>
</g>
<path d="M37.64,28.563C35.504,28.563 33.454,29.673 32.115,31.427C30.777,29.673 28.726,28.563 26.59,28.563C22.808,28.563 19.837,31.879 19.837,36.101C19.837,41.281 24.012,45.503 30.335,51.917L32.115,53.712L33.896,51.903C40.219,45.503 44.394,41.281 44.394,36.101C44.394,31.879 41.422,28.563 37.64,28.563ZM32.238,49.875L32.115,50.012L31.992,49.875C26.148,43.968 22.293,40.061 22.293,36.101C22.293,33.359 24.134,31.304 26.59,31.304C28.481,31.304 30.323,32.66 30.973,34.538L33.269,34.538C33.908,32.66 35.75,31.304 37.64,31.304C40.096,31.304 41.938,33.359 41.938,36.101C41.938,40.061 38.082,43.968 32.238,49.875Z" clip-rule="evenodd" fill-rule="evenodd" fill="#9B9B9B"/>
<defs>
<filter id="filterI3_2798;25_188" x="-4.816406" y="-4.77832" width="41.795918" height="45.724552" filterUnits="userSpaceOnUse" color-interpolation-filters="sRGB">
<feFlood flood-opacity="0" result="BackgroundImageFix"/>
<feColorMatrix in="SourceAlpha" type="matrix" values="0 0 0 0 0 0 0 0 0 0 0 0 0 0 0 0 0 0 127 0" result="hardAlpha"/>
<feMorphology radius="0" operator="dilate" in="SourceAlpha" result="0dropshadow"/>
<feOffset dx="0" dy="4"/>
<feGaussianBlur stdDeviation="2"/>
<feComposite in2="hardAlpha" operator="out"/>
<feColorMatrix type="matrix" values="0 0 0 0 0 0 0 0 0 0 0 0 0 0 0 0 0 0 0.08 0"/>
<feBlend mode="normal" in2="BackgroundImageFix" result="0dropshadow"/>
<feBlend mode="normal" in="SourceGraphic" in2="0dropshadow" result="shape"/>
</filter>
</defs>
</svg>
