<svg width="70" height="76" viewBox="0 0 70 76" fill="none" xmlns="http://www.w3.org/2000/svg" xmlns:xlink="http://www.w3.org/1999/xlink">
<g filter="url(#filterI3_2729;25_188)">
<path d="M69.184,36.946C69.184,57.781 53.724,74.671 34.653,74.671C15.582,74.671 0.123,57.781 0.123,36.946C0.123,16.112 15.582,-0.778 34.653,-0.778C53.724,-0.778 69.184,16.112 69.184,36.946Z" fill="#FFFFFF"/>
</g>
<path d="M33.77,54L31.951,52.274C25.49,46.166 21.225,42.137 21.225,37.193C21.225,33.165 24.261,30 28.124,30C30.307,30 32.402,31.059 33.77,32.734C35.137,31.059 37.232,30 39.415,30C43.279,30 46.315,33.165 46.315,37.193C46.315,42.137 42.05,46.166 35.589,52.287L33.77,54Z" clip-rule="evenodd" fill-rule="evenodd" fill="#DB3022"/>
<defs>
<filter id="filterI3_2729;25_188" x="-3.877441" y="-4.77832" width="42.530613" height="45.724552" filterUnits="userSpaceOnUse" color-interpolation-filters="sRGB">
<feFlood flood-opacity="0" result="BackgroundImageFix"/>
<feColorMatrix in="SourceAlpha" type="matrix" values="0 0 0 0 0 0 0 0 0 0 0 0 0 0 0 0 0 0 127 0" result="hardAlpha"/>
<feMorphology radius="0" operator="dilate" in="SourceAlpha" result="0dropshadow"/>
<feOffset dx="0" dy="4"/>
<feGaussianBlur stdDeviation="2"/>
<feComposite in2="hardAlpha" operator="out"/>
<feColorMatrix type="matrix" values="0 0 0 0 0 0 0 0 0 0 0 0 0 0 0 0 0 0 0.08 0"/>
<feBlend mode="normal" in2="BackgroundImageFix" result="0dropshadow"/>
<feBlend mode="normal" in="SourceGraphic" in2="0dropshadow" result="shape"/>
</filter>
</defs>
</svg>
