<svg width="70" height="76" viewBox="0 0 70 76" fill="none" xmlns="http://www.w3.org/2000/svg" xmlns:xlink="http://www.w3.org/1999/xlink">
<g filter="url(#filterI3_2739;25_188)">
<path d="M69.184,36.946C69.184,57.781 53.724,74.671 34.653,74.671C15.582,74.671 0.123,57.781 0.123,36.946C0.123,16.112 15.582,-0.778 34.653,-0.778C53.724,-0.778 69.184,16.112 69.184,36.946Z" fill="#FFFFFF"/>
</g>
<path d="M39.415,28.563C37.232,28.563 35.137,29.673 33.77,31.427C32.402,29.673 30.307,28.563 28.124,28.563C24.261,28.563 21.225,31.879 21.225,36.101C21.225,41.281 25.49,45.503 31.951,51.917L33.77,53.712L35.589,51.903C42.05,45.503 46.315,41.281 46.315,36.101C46.315,31.879 43.279,28.563 39.415,28.563ZM33.895,49.875L33.77,50.012L33.644,49.875C27.673,43.968 23.734,40.061 23.734,36.101C23.734,33.359 25.615,31.304 28.124,31.304C30.056,31.304 31.938,32.66 32.603,34.538L34.949,34.538C35.601,32.66 37.483,31.304 39.415,31.304C41.924,31.304 43.806,33.359 43.806,36.101C43.806,40.061 39.867,43.968 33.895,49.875Z" clip-rule="evenodd" fill-rule="evenodd" fill="#9B9B9B"/>
<defs>
<filter id="filterI3_2739;25_188" x="-3.877441" y="-4.77832" width="42.530613" height="45.724552" filterUnits="userSpaceOnUse" color-interpolation-filters="sRGB">
<feFlood flood-opacity="0" result="BackgroundImageFix"/>
<feColorMatrix in="SourceAlpha" type="matrix" values="0 0 0 0 0 0 0 0 0 0 0 0 0 0 0 0 0 0 127 0" result="hardAlpha"/>
<feMorphology radius="0" operator="dilate" in="SourceAlpha" result="0dropshadow"/>
<feOffset dx="0" dy="4"/>
<feGaussianBlur stdDeviation="2"/>
<feComposite in2="hardAlpha" operator="out"/>
<feColorMatrix type="matrix" values="0 0 0 0 0 0 0 0 0 0 0 0 0 0 0 0 0 0 0.08 0"/>
<feBlend mode="normal" in2="BackgroundImageFix" result="0dropshadow"/>
<feBlend mode="normal" in="SourceGraphic" in2="0dropshadow" result="shape"/>
</filter>
</defs>
</svg>
