<svg width="68" height="76" viewBox="0 0 68 76" fill="none" xmlns="http://www.w3.org/2000/svg" xmlns:xlink="http://www.w3.org/1999/xlink">
<g filter="url(#filterI3_2810;25_188)">
<path d="M66.775,36.946C66.775,57.781 51.644,74.671 32.98,74.671C14.315,74.671 -0.816,57.781 -0.816,36.946C-0.816,16.112 14.315,-0.778 32.98,-0.778C51.644,-0.778 66.775,16.112 66.775,36.946Z" fill="#FFFFFF"/>
</g>
<path d="M32.115,54L30.335,52.274C24.012,46.166 19.837,42.137 19.837,37.193C19.837,33.165 22.808,30 26.59,30C28.726,30 30.777,31.059 32.115,32.734C33.454,31.059 35.504,30 37.64,30C41.422,30 44.394,33.165 44.394,37.193C44.394,42.137 40.219,46.166 33.896,52.287L32.115,54Z" clip-rule="evenodd" fill-rule="evenodd" fill="#DB3022"/>
<defs>
<filter id="filterI3_2810;25_188" x="-4.816406" y="-4.77832" width="41.795918" height="45.724552" filterUnits="userSpaceOnUse" color-interpolation-filters="sRGB">
<feFlood flood-opacity="0" result="BackgroundImageFix"/>
<feColorMatrix in="SourceAlpha" type="matrix" values="0 0 0 0 0 0 0 0 0 0 0 0 0 0 0 0 0 0 127 0" result="hardAlpha"/>
<feMorphology radius="0" operator="dilate" in="SourceAlpha" result="0dropshadow"/>
<feOffset dx="0" dy="4"/>
<feGaussianBlur stdDeviation="2"/>
<feComposite in2="hardAlpha" operator="out"/>
<feColorMatrix type="matrix" values="0 0 0 0 0 0 0 0 0 0 0 0 0 0 0 0 0 0 0.08 0"/>
<feBlend mode="normal" in2="BackgroundImageFix" result="0dropshadow"/>
<feBlend mode="normal" in="SourceGraphic" in2="0dropshadow" result="shape"/>
</filter>
</defs>
</svg>
