<svg width="38" height="36" viewBox="0 0 38 36" fill="none" xmlns="http://www.w3.org/2000/svg" xmlns:xlink="http://www.w3.org/1999/xlink">
<path d="M10.879,16.2L13.879,16.2L13.879,19.2L10.879,19.2L10.879,16.2ZM10.879,22.2L13.879,22.2L13.879,25.2L10.879,25.2L10.879,22.2ZM16.879,16.2L19.879,16.2L19.879,19.2L16.879,19.2L16.879,16.2ZM16.879,22.2L19.879,22.2L19.879,25.2L16.879,25.2L16.879,22.2ZM22.879,16.2L25.879,16.2L25.879,19.2L22.879,19.2L22.879,16.2ZM22.879,22.2L25.879,22.2L25.879,25.2L22.879,25.2L22.879,22.2Z" fill="#000000"/>
<path d="M7.879,32.7L28.879,32.7C30.534,32.7 31.879,31.355 31.879,29.7L31.879,8.7C31.879,7.046 30.534,5.7 28.879,5.7L25.879,5.7L25.879,2.7L22.879,2.7L22.879,5.7L13.879,5.7L13.879,2.7L10.879,2.7L10.879,5.7L7.879,5.7C6.224,5.7 4.879,7.046 4.879,8.7L4.879,29.7C4.879,31.355 6.224,32.7 7.879,32.7ZM28.879,11.7L28.88,29.7L7.879,29.7L7.879,11.7L28.879,11.7Z" fill="#000000"/>
</svg>
