<svg width="44" height="46" viewBox="0 0 44 46" fill="none" xmlns="http://www.w3.org/2000/svg" xmlns:xlink="http://www.w3.org/1999/xlink">
<path d="M21.999,25.147C20.695,25.147 19.419,24.738 18.334,23.97C17.249,23.203 16.404,22.112 15.905,20.835C15.405,19.559 15.275,18.154 15.529,16.799C15.784,15.444 16.412,14.2 17.335,13.223C18.257,12.246 19.433,11.581 20.712,11.311C21.992,11.041 23.319,11.18 24.524,11.708C25.73,12.237 26.76,13.133 27.485,14.281C28.21,15.43 28.597,16.78 28.597,18.162C28.594,20.014 27.899,21.789 26.662,23.099C25.425,24.408 23.748,25.145 21.999,25.147ZM21.999,13.971C21.217,13.971 20.451,14.217 19.8,14.677C19.149,15.138 18.642,15.792 18.343,16.558C18.043,17.324 17.965,18.167 18.117,18.98C18.27,19.793 18.647,20.54 19.201,21.126C19.754,21.712 20.459,22.111 21.227,22.273C21.995,22.434 22.791,22.351 23.514,22.034C24.238,21.717 24.856,21.18 25.291,20.491C25.726,19.801 25.958,18.991 25.958,18.162C25.957,17.051 25.539,15.985 24.797,15.2C24.055,14.414 23.049,13.972 21.999,13.971Z" fill="#000000"/>
<path d="M21.999,41.912L10.869,28.012C10.714,27.804 10.561,27.594 10.41,27.382C8.509,24.73 7.482,21.491 7.486,18.162C7.486,14.086 9.015,10.177 11.737,7.295C14.459,4.413 18.15,2.794 21.999,2.794C25.849,2.794 29.54,4.413 32.262,7.295C34.984,10.177 36.513,14.086 36.513,18.162C36.516,21.489 35.49,24.727 33.591,27.378L33.589,27.382C33.589,27.382 33.193,27.933 33.134,28.007L21.999,41.912ZM12.517,25.699C12.517,25.699 12.824,26.129 12.894,26.221L21.999,37.592L31.117,26.206C31.175,26.129 31.483,25.696 31.485,25.695C33.038,23.528 33.877,20.882 33.874,18.162C33.874,14.827 32.623,11.629 30.396,9.271C28.169,6.913 25.149,5.588 21.999,5.588C18.85,5.588 15.83,6.913 13.603,9.271C11.376,11.629 10.125,14.827 10.125,18.162C10.121,20.883 10.962,23.531 12.517,25.699Z" fill="#000000"/>
</svg>
