<svg width="84" height="80" viewBox="0 0 84 80" fill="none" xmlns="http://www.w3.org/2000/svg" xmlns:xlink="http://www.w3.org/1999/xlink">
<path d="M83.265,40C83.265,62.091 64.626,80 41.633,80C18.64,80 0,62.091 0,40C0,17.909 18.64,0 41.633,0C64.626,0 83.265,17.909 83.265,40Z" fill="#F9F9F9"/>
<line x1="36.428" y1="53.5" x2="46.836" y2="53.5" stroke="#374151" stroke-width="1.5" stroke-miterlimit="3.999327" stroke-linecap="round" stroke-linejoin="round"/>
<path d="M29.956,36.25L31.456,36.25L31.456,36.248L29.956,36.25ZM41.721,25L41.732,23.5L41.73,23.5L41.721,25ZM55.602,48.118L54.318,48.895L54.321,48.899L55.602,48.118ZM54.482,50L54.482,51.5L54.486,51.5L54.482,50ZM28.782,50L28.778,51.5L28.782,51.5L28.782,50ZM27.663,48.118L28.943,48.899L28.946,48.895L27.663,48.118ZM29.956,37.5L28.456,37.5L28.456,37.5L29.956,37.5ZM31.456,36.248C31.454,34.972 31.715,33.707 32.225,32.524L29.471,31.335C28.799,32.892 28.454,34.563 28.456,36.252L31.456,36.248ZM32.225,32.524C32.736,31.342 33.487,30.265 34.437,29.355L32.364,27.187C31.127,28.37 30.143,29.779 29.471,31.335L32.225,32.524ZM34.437,29.355C35.388,28.446 36.52,27.724 37.769,27.233L36.672,24.441C35.065,25.072 33.6,26.005 32.364,27.187L34.437,29.355ZM37.769,27.233C39.019,26.742 40.359,26.492 41.712,26.5L41.73,23.5C39.998,23.49 38.279,23.809 36.672,24.441L37.769,27.233ZM41.711,26.5C47.352,26.54 51.81,31.04 51.81,36.391L54.81,36.391C54.81,29.336 48.967,23.552 41.732,23.5L41.711,26.5ZM51.81,36.391L51.81,37.5L54.81,37.5L54.81,36.391L51.81,36.391ZM51.81,37.5C51.81,43.318 53.078,46.845 54.318,48.895L56.885,47.342C55.978,45.842 54.81,42.874 54.81,37.5L51.81,37.5ZM54.321,48.899C54.296,48.859 54.28,48.808 54.28,48.752L57.28,48.735C57.277,48.24 57.138,47.757 56.882,47.338L54.321,48.899ZM54.28,48.752C54.28,48.696 54.295,48.644 54.319,48.603L56.898,50.137C57.149,49.714 57.283,49.23 57.28,48.735L54.28,48.752ZM54.319,48.603C54.343,48.563 54.374,48.536 54.401,48.521L55.865,51.139C56.288,50.903 56.647,50.559 56.898,50.137L54.319,48.603ZM54.401,48.521C54.429,48.506 54.455,48.5 54.479,48.5L54.486,51.5C54.967,51.499 55.443,51.376 55.865,51.139L54.401,48.521ZM54.482,48.5L28.782,48.5L28.782,51.5L54.482,51.5L54.482,48.5ZM28.786,48.5C28.809,48.5 28.836,48.506 28.863,48.521L27.399,51.139C27.821,51.376 28.297,51.499 28.778,51.5L28.786,48.5ZM28.863,48.521C28.891,48.536 28.921,48.563 28.945,48.603L26.366,50.137C26.618,50.559 26.976,50.903 27.399,51.139L28.863,48.521ZM28.945,48.603C28.969,48.644 28.985,48.696 28.984,48.752L25.984,48.735C25.982,49.23 26.115,49.714 26.366,50.137L28.945,48.603ZM28.984,48.752C28.984,48.808 28.968,48.859 28.943,48.899L26.382,47.337C26.126,47.757 25.987,48.239 25.984,48.735L28.984,48.752ZM28.946,48.895C30.187,46.845 31.456,43.318 31.456,37.5L28.456,37.5C28.456,42.874 27.287,45.842 26.38,47.342L28.946,48.895ZM31.456,37.5L31.456,36.25L28.456,36.25L28.456,37.5L31.456,37.5Z" fill="#374151"/>
</svg>
