<svg width="84" height="80" viewBox="0 0 84 80" fill="none" xmlns="http://www.w3.org/2000/svg" xmlns:xlink="http://www.w3.org/1999/xlink">
<path d="M83.265,40C83.265,62.091 64.626,80 41.633,80C18.64,80 0,62.091 0,40C0,17.909 18.64,0 41.633,0C64.626,0 83.265,17.909 83.265,40Z" fill="#F9F9F9"/>
<line x1="36.429" y1="53.5" x2="46.837" y2="53.5" stroke="#374151" stroke-width="1.5" stroke-miterlimit="3.999327" stroke-linecap="round" stroke-linejoin="round"/>
<path d="M29.957,36.25L31.457,36.25L31.457,36.248L29.957,36.25ZM41.722,25L41.733,23.5L41.731,23.5L41.722,25ZM55.603,48.118L54.319,48.895L54.322,48.899L55.603,48.118ZM54.483,50L54.483,51.5L54.487,51.5L54.483,50ZM28.783,50L28.779,51.5L28.783,51.5L28.783,50ZM27.664,48.118L28.944,48.899L28.947,48.895L27.664,48.118ZM29.957,37.5L28.457,37.5L28.457,37.5L29.957,37.5ZM31.457,36.248C31.455,34.972 31.716,33.707 32.226,32.524L29.472,31.335C28.8,32.892 28.454,34.563 28.457,36.252L31.457,36.248ZM32.226,32.524C32.737,31.342 33.487,30.265 34.438,29.355L32.365,27.187C31.128,28.37 30.144,29.779 29.472,31.335L32.226,32.524ZM34.438,29.355C35.389,28.446 36.521,27.724 37.77,27.233L36.673,24.441C35.066,25.072 33.601,26.005 32.365,27.187L34.438,29.355ZM37.77,27.233C39.02,26.742 40.36,26.492 41.713,26.5L41.731,23.5C39.999,23.49 38.28,23.809 36.673,24.441L37.77,27.233ZM41.712,26.5C47.353,26.54 51.811,31.04 51.811,36.391L54.811,36.391C54.811,29.336 48.968,23.552 41.733,23.5L41.712,26.5ZM51.811,36.391L51.811,37.5L54.811,37.5L54.811,36.391L51.811,36.391ZM51.811,37.5C51.811,43.318 53.079,46.845 54.319,48.895L56.886,47.342C55.979,45.842 54.811,42.874 54.811,37.5L51.811,37.5ZM54.322,48.899C54.297,48.859 54.281,48.808 54.281,48.752L57.281,48.735C57.278,48.24 57.139,47.757 56.883,47.338L54.322,48.899ZM54.281,48.752C54.281,48.696 54.296,48.644 54.32,48.603L56.899,50.137C57.15,49.714 57.284,49.23 57.281,48.735L54.281,48.752ZM54.32,48.603C54.344,48.563 54.375,48.536 54.402,48.521L55.866,51.139C56.289,50.903 56.648,50.559 56.899,50.137L54.32,48.603ZM54.402,48.521C54.43,48.506 54.456,48.5 54.48,48.5L54.487,51.5C54.968,51.499 55.444,51.376 55.866,51.139L54.402,48.521ZM54.483,48.5L28.783,48.5L28.783,51.5L54.483,51.5L54.483,48.5ZM28.787,48.5C28.81,48.5 28.837,48.506 28.864,48.521L27.4,51.139C27.822,51.376 28.298,51.499 28.779,51.5L28.787,48.5ZM28.864,48.521C28.892,48.536 28.922,48.563 28.946,48.603L26.367,50.137C26.619,50.559 26.977,50.903 27.4,51.139L28.864,48.521ZM28.946,48.603C28.97,48.644 28.986,48.696 28.985,48.752L25.985,48.735C25.983,49.23 26.116,49.714 26.367,50.137L28.946,48.603ZM28.985,48.752C28.985,48.808 28.969,48.859 28.944,48.899L26.383,47.337C26.127,47.757 25.988,48.239 25.985,48.735L28.985,48.752ZM28.947,48.895C30.188,46.845 31.457,43.318 31.457,37.5L28.457,37.5C28.457,42.874 27.288,45.842 26.381,47.342L28.947,48.895ZM31.457,37.5L31.457,36.25L28.457,36.25L28.457,37.5L31.457,37.5Z" fill="#374151"/>
</svg>
