<svg width="28" height="28" viewBox="0 0 28 28" fill="none" xmlns="http://www.w3.org/2000/svg" xmlns:xlink="http://www.w3.org/1999/xlink">
<path d="M27.486,25.148L19.82,17.479C21.194,15.605 21.93,13.339 21.92,11.015C21.894,4.949 16.987,0.035 10.921,0C8.018,-0.013 5.23,1.135 3.179,3.19C1.128,5.244 -0.017,8.033 0,10.936C0.026,17.003 4.933,21.917 11,21.952C13.334,21.962 15.608,21.218 17.483,19.829L17.491,19.823L25.15,27.486C25.564,27.921 26.181,28.096 26.762,27.946C27.343,27.795 27.797,27.341 27.947,26.76C28.097,26.179 27.921,25.562 27.486,25.148L27.486,25.148ZM10.992,19.756C6.139,19.728 2.213,15.797 2.192,10.944C2.179,8.622 3.095,6.391 4.736,4.748C6.376,3.105 8.606,2.185 10.928,2.195C15.781,2.223 19.707,6.154 19.728,11.007C19.741,13.329 18.826,15.56 17.185,17.203C15.544,18.847 13.314,19.766 10.992,19.756Z" clip-rule="evenodd" fill-rule="evenodd" fill="#8E8E93"/>
</svg>
