<svg width="24" height="22" viewBox="0 0 24 22" fill="none" xmlns="http://www.w3.org/2000/svg" xmlns:xlink="http://www.w3.org/1999/xlink">
<path d="M10.098,1.854C10.697,0.011 13.303,0.011 13.902,1.854L15.143,5.674C15.411,6.498 16.179,7.056 17.045,7.056L21.062,7.056C22.999,7.056 23.805,9.535 22.237,10.674L18.988,13.034C18.287,13.544 17.994,14.446 18.261,15.271L19.502,19.09C20.101,20.933 17.992,22.465 16.425,21.326L13.176,18.966C12.475,18.456 11.525,18.456 10.824,18.966L7.575,21.326C6.008,22.465 3.899,20.933 4.498,19.09L5.739,15.271C6.006,14.446 5.713,13.544 5.012,13.034L1.763,10.674C0.195,9.535 1.001,7.056 2.938,7.056L6.955,7.056C7.821,7.056 8.589,6.498 8.857,5.674L10.098,1.854Z" fill="#DDDDDD"/>
</svg>
