<svg width="26" height="24" viewBox="0 0 26 24" fill="none" xmlns="http://www.w3.org/2000/svg" xmlns:xlink="http://www.w3.org/1999/xlink">
<path d="M13.265,19.889L13.492,19.443L13.265,19.327L13.038,19.443L13.265,19.889ZM6.765,15.305L7.258,15.392L7.304,15.127L7.109,14.942L6.765,15.305ZM9.248,7.889L9.318,8.384L9.576,8.347L9.694,8.115L9.248,7.889ZM17.282,7.889L16.837,8.115L16.955,8.347L17.213,8.384L17.282,7.889ZM19.765,15.305L19.422,14.942L19.226,15.127L19.273,15.392L19.765,15.305ZM20.95,22.011L20.458,22.098L20.95,22.011ZM19.511,23.075L19.738,22.63L19.511,23.075ZM14.157,1.741L13.711,1.968L14.157,1.741ZM7.019,23.075L6.792,22.63L7.019,23.075ZM5.58,22.011L5.088,21.924L5.58,22.011ZM13.038,19.443L6.792,22.63L7.247,23.521L13.492,20.334L13.038,19.443ZM6.073,22.098L7.258,15.392L6.273,15.218L5.088,21.924L6.073,22.098ZM7.109,14.942L2.117,10.219L1.43,10.945L6.422,15.668L7.109,14.942ZM2.391,9.361L9.318,8.384L9.178,7.394L2.251,8.37L2.391,9.361ZM9.694,8.115L12.819,1.968L11.928,1.515L8.802,7.662L9.694,8.115ZM13.711,1.968L16.837,8.115L17.728,7.662L14.602,1.515L13.711,1.968ZM17.213,8.384L24.14,9.361L24.279,8.37L17.352,7.394L17.213,8.384ZM24.414,10.219L19.422,14.942L20.109,15.668L25.101,10.945L24.414,10.219ZM19.273,15.392L20.458,22.098L21.443,21.924L20.258,15.218L19.273,15.392ZM19.738,22.63L13.492,19.443L13.038,20.334L19.284,23.521L19.738,22.63ZM20.458,22.098C20.53,22.504 20.106,22.818 19.738,22.63L19.284,23.521C20.387,24.084 21.658,23.143 21.443,21.924L20.458,22.098ZM24.14,9.361C24.554,9.419 24.718,9.931 24.414,10.219L25.101,10.945C26.014,10.082 25.524,8.546 24.279,8.37L24.14,9.361ZM12.819,1.968C13.005,1.603 13.525,1.603 13.711,1.968L14.602,1.515C14.046,0.421 12.484,0.421 11.928,1.515L12.819,1.968ZM2.117,10.219C1.813,9.931 1.976,9.419 2.391,9.361L2.251,8.37C1.007,8.546 0.517,10.082 1.43,10.945L2.117,10.219ZM6.792,22.63C6.424,22.818 6.001,22.504 6.073,22.098L5.088,21.924C4.872,23.143 6.144,24.084 7.247,23.521L6.792,22.63Z" fill="#9B9B9B"/>
</svg>
