<svg width="26" height="24" viewBox="0 0 26 24" fill="none" xmlns="http://www.w3.org/2000/svg" xmlns:xlink="http://www.w3.org/1999/xlink">
<path d="M12.898,19.889L13.125,19.443L12.898,19.327L12.671,19.443L12.898,19.889ZM6.398,15.305L6.89,15.392L6.937,15.127L6.742,14.942L6.398,15.305ZM8.881,7.889L8.951,8.384L9.208,8.347L9.326,8.115L8.881,7.889ZM16.915,7.889L16.469,8.115L16.588,8.347L16.845,8.384L16.915,7.889ZM19.398,15.305L19.054,14.942L18.859,15.127L18.906,15.392L19.398,15.305ZM20.583,22.011L20.091,22.098L20.583,22.011ZM19.144,23.075L19.371,22.63L19.144,23.075ZM13.789,1.741L13.344,1.968L13.789,1.741ZM6.652,23.075L6.425,22.63L6.652,23.075ZM5.213,22.011L4.721,21.924L5.213,22.011ZM12.671,19.443L6.425,22.63L6.879,23.521L13.125,20.334L12.671,19.443ZM5.705,22.098L6.89,15.392L5.906,15.218L4.721,21.924L5.705,22.098ZM6.742,14.942L1.75,10.219L1.062,10.945L6.054,15.668L6.742,14.942ZM2.023,9.361L8.951,8.384L8.811,7.394L1.884,8.37L2.023,9.361ZM9.326,8.115L12.452,1.968L11.561,1.515L8.435,7.662L9.326,8.115ZM13.344,1.968L16.469,8.115L17.361,7.662L14.235,1.515L13.344,1.968ZM16.845,8.384L23.773,9.361L23.912,8.37L16.985,7.394L16.845,8.384ZM24.046,10.219L19.054,14.942L19.742,15.668L24.734,10.945L24.046,10.219ZM18.906,15.392L20.091,22.098L21.075,21.924L19.89,15.218L18.906,15.392ZM19.371,22.63L13.125,19.443L12.671,20.334L18.916,23.521L19.371,22.63ZM20.091,22.098C20.162,22.504 19.739,22.818 19.371,22.63L18.916,23.521C20.019,24.084 21.291,23.143 21.075,21.924L20.091,22.098ZM23.773,9.361C24.187,9.419 24.351,9.931 24.046,10.219L24.734,10.945C25.646,10.082 25.156,8.546 23.912,8.37L23.773,9.361ZM12.452,1.968C12.638,1.603 13.158,1.603 13.344,1.968L14.235,1.515C13.679,0.421 12.117,0.421 11.561,1.515L12.452,1.968ZM1.75,10.219C1.445,9.931 1.609,9.419 2.023,9.361L1.884,8.37C0.64,8.546 0.15,10.082 1.062,10.945L1.75,10.219ZM6.425,22.63C6.057,22.818 5.633,22.504 5.705,22.098L4.721,21.924C4.505,23.143 5.776,24.084 6.879,23.521L6.425,22.63Z" fill="#9B9B9B"/>
</svg>
