<svg width="36" height="36" viewBox="0 0 36 36" fill="none" xmlns="http://www.w3.org/2000/svg" xmlns:xlink="http://www.w3.org/1999/xlink">
<path d="M-0.5,36L-0.5,32C0.608,32 1.44,31.667 1.994,31C2.548,30.333 3.642,30 5.275,30C6.908,30 8.031,30.333 8.644,31C9.256,31.667 10.087,32 11.138,32C12.188,32 13.019,31.667 13.631,31C14.244,30.333 15.367,30 17,30C18.633,30 19.756,30.333 20.369,31C20.981,31.667 21.812,32 22.863,32C23.913,32 24.744,31.667 25.356,31C25.969,30.333 27.092,30 28.725,30C30.358,30 31.452,30.333 32.006,31C32.56,31.667 33.392,32 34.5,32L34.5,36C32.779,36 31.649,35.667 31.11,35C30.571,34.333 29.776,34 28.725,34C27.674,34 26.843,34.333 26.231,35C25.62,35.667 24.497,36 22.863,36C21.228,36 20.105,35.667 19.494,35C18.882,34.333 18.051,34 17,34C15.949,34 15.118,34.333 14.506,35C13.895,35.667 12.772,36 11.138,36C9.503,36 8.38,35.667 7.769,35C7.157,34.333 6.326,34 5.275,34C4.224,34 3.429,34.333 2.89,35C2.351,35.667 1.221,36 -0.5,36ZM-0.5,27L-0.5,23C0.608,23 1.44,22.667 1.994,22C2.548,21.333 3.642,21 5.275,21C6.908,21 8.039,21.333 8.666,22C9.294,22.667 10.118,23 11.138,23C12.188,23 13.019,22.667 13.631,22C14.244,21.333 15.367,21 17,21C18.633,21 19.756,21.333 20.369,22C20.981,22.667 21.812,23 22.863,23C23.913,23 24.744,22.667 25.356,22C25.969,21.333 27.092,21 28.725,21C30.358,21 31.452,21.333 32.006,22C32.56,22.667 33.392,23 34.5,23L34.5,27C32.779,27 31.649,26.667 31.11,26C30.571,25.333 29.776,25 28.725,25C27.674,25 26.864,25.333 26.296,26C25.728,26.667 24.583,27 22.863,27C21.2,27 20.07,26.667 19.473,26C18.875,25.333 18.051,25 17,25C15.892,25 15.068,25.333 14.529,26C13.99,26.667 12.86,27 11.138,27C9.415,27 8.27,26.667 7.702,26C7.134,25.333 6.325,25 5.275,25C4.225,25 3.431,25.333 2.891,26C2.353,26.667 1.222,27 -0.5,27ZM8.075,16.8L13.894,10.15L12.144,8.15C11.181,7.05 10.16,6.25 9.081,5.75C8.002,5.25 6.675,5 5.1,5L5.1,0C7.288,0 9.096,0.275 10.525,0.826C11.954,1.377 13.354,2.435 14.725,4L25.925,16.8C25.429,17.167 24.948,17.459 24.481,17.676C24.015,17.893 23.475,18.001 22.863,18C21.812,18 20.981,17.667 20.369,17C19.756,16.333 18.633,16 17,16C15.367,16 14.244,16.333 13.631,17C13.019,17.667 12.188,18 11.138,18C10.525,18 9.985,17.892 9.519,17.676C9.052,17.46 8.571,17.168 8.075,16.8ZM25.225,0C26.45,0 27.485,0.492 28.331,1.476C29.177,2.46 29.6,3.635 29.6,5C29.6,6.4 29.177,7.583 28.331,8.55C27.485,9.517 26.45,10 25.225,10C24,10 22.965,9.517 22.119,8.55C21.273,7.583 20.85,6.4 20.85,5C20.85,3.633 21.273,2.458 22.119,1.474C22.965,0.49 24,-0.001 25.225,0Z" fill="#000000"/>
</svg>
