<svg width="16" height="22" viewBox="0 0 16 22" fill="none" xmlns="http://www.w3.org/2000/svg" xmlns:xlink="http://www.w3.org/1999/xlink">
<path d="M6.939,0.838C4.904,0.84 2.954,1.709 1.515,3.252C0.077,4.796 -0.732,6.889 -0.735,9.071C-0.735,16.116 6.241,21.438 6.538,21.661C6.655,21.749 6.795,21.796 6.939,21.796C7.082,21.796 7.222,21.749 7.339,21.661C7.636,21.438 14.612,16.116 14.612,9.071C14.61,6.889 13.8,4.796 12.362,3.252C10.923,1.709 8.973,0.84 6.939,0.838L6.939,0.838ZM6.939,6.078C7.491,6.078 8.03,6.253 8.489,6.582C8.948,6.911 9.306,7.379 9.517,7.926C9.728,8.473 9.784,9.075 9.676,9.656C9.568,10.237 9.302,10.77 8.912,11.189C8.522,11.608 8.025,11.893 7.483,12.008C6.942,12.124 6.381,12.064 5.871,11.838C5.361,11.611 4.926,11.227 4.619,10.735C4.312,10.243 4.149,9.664 4.149,9.072C4.149,8.679 4.221,8.289 4.361,7.926C4.501,7.563 4.707,7.233 4.966,6.955C5.225,6.677 5.533,6.456 5.871,6.306C6.21,6.155 6.573,6.078 6.939,6.078L6.939,6.078Z" fill="#000000"/>
</svg>
