<svg width="22" height="28" viewBox="0 0 22 28" fill="none" xmlns="http://www.w3.org/2000/svg" xmlns:xlink="http://www.w3.org/1999/xlink">
<path d="M11,-1C8.084,-0.997 5.288,0.163 3.226,2.226C1.163,4.288 0.003,7.084 0,10C-0.003,12.383 0.775,14.702 2.216,16.6C2.216,16.6 2.516,16.995 2.565,17.052L11,27L19.439,17.047C19.483,16.994 19.784,16.6 19.784,16.6L19.785,16.597C21.225,14.7 22.003,12.382 22,10C21.997,7.084 20.837,4.288 18.774,2.226C16.712,0.163 13.916,-0.997 11,-1L11,-1ZM11,14C10.209,14 9.436,13.765 8.778,13.326C8.12,12.886 7.607,12.262 7.305,11.531C7.002,10.8 6.923,9.996 7.077,9.22C7.231,8.444 7.612,7.731 8.172,7.172C8.731,6.612 9.444,6.231 10.22,6.077C10.996,5.923 11.8,6.002 12.531,6.304C13.262,6.607 13.886,7.12 14.326,7.778C14.765,8.436 15,9.209 15,10C14.999,11.06 14.577,12.077 13.827,12.827C13.077,13.577 12.06,13.999 11,14L11,14Z" fill="#778088"/>
</svg>
