<svg width="24" height="28" viewBox="0 0 24 28" fill="none" xmlns="http://www.w3.org/2000/svg" xmlns:xlink="http://www.w3.org/1999/xlink">
<path d="M11.387,-1C8.47,-0.997 5.675,0.163 3.612,2.226C1.55,4.288 0.39,7.084 0.387,10C0.387,19.412 10.387,26.521 10.812,26.819C10.981,26.937 11.181,27 11.387,27C11.592,27 11.793,26.937 11.961,26.819C12.387,26.521 22.387,19.412 22.387,10C22.383,7.084 21.223,4.288 19.161,2.226C17.099,0.163 14.303,-0.997 11.387,-1L11.387,-1ZM11.387,6C12.179,6 12.952,6.235 13.61,6.674C14.268,7.114 14.78,7.739 15.083,8.47C15.386,9.201 15.465,10.005 15.311,10.781C15.156,11.557 14.775,12.269 14.216,12.829C13.656,13.388 12.944,13.769 12.168,13.924C11.392,14.078 10.588,13.999 9.857,13.696C9.126,13.393 8.501,12.88 8.062,12.223C7.622,11.565 7.387,10.791 7.387,10C7.387,9.475 7.491,8.955 7.692,8.47C7.893,7.984 8.188,7.543 8.559,7.172C8.93,6.8 9.371,6.506 9.857,6.305C10.342,6.104 10.862,6 11.387,6L11.387,6Z" fill="#000000"/>
</svg>
