<svg width="24" height="28" viewBox="0 0 24 28" fill="none" xmlns="http://www.w3.org/2000/svg" xmlns:xlink="http://www.w3.org/1999/xlink">
<path d="M12,-1C9.083,-0.997 6.287,0.163 4.225,2.226C2.163,4.288 1.003,7.084 1,10C1,19.412 11,26.521 11.425,26.819C11.594,26.937 11.794,27 12,27C12.205,27 12.405,26.937 12.574,26.819C13,26.521 23,19.412 23,10C22.996,7.084 21.836,4.288 19.774,2.226C17.712,0.163 14.916,-0.997 12,-1L12,-1ZM12,6C12.791,6 13.565,6.235 14.223,6.674C14.88,7.114 15.393,7.739 15.696,8.47C15.999,9.201 16.078,10.005 15.923,10.781C15.769,11.557 15.388,12.269 14.829,12.829C14.269,13.388 13.557,13.769 12.781,13.924C12.005,14.078 11.2,13.999 10.47,13.696C9.739,13.393 9.114,12.88 8.674,12.223C8.235,11.565 8,10.791 8,10C8,9.475 8.104,8.955 8.305,8.47C8.506,7.984 8.8,7.543 9.172,7.172C9.543,6.8 9.984,6.506 10.469,6.305C10.955,6.104 11.475,6 12,6L12,6Z" fill="#000000"/>
</svg>
