<svg width="26" height="46" viewBox="0 0 26 46" fill="none" xmlns="http://www.w3.org/2000/svg" xmlns:xlink="http://www.w3.org/1999/xlink">
<path d="M24.16,4.086C24.95,3.314 24.965,2.048 24.193,1.258C23.421,0.467 22.155,0.453 21.365,1.225L24.16,4.086ZM2.293,22.656L0.895,21.225C0.51,21.602 0.293,22.117 0.293,22.656C0.293,23.194 0.51,23.71 0.895,24.086L2.293,22.656ZM21.365,44.087C22.155,44.859 23.421,44.844 24.193,44.054C24.965,43.264 24.95,41.998 24.16,41.226L21.365,44.087ZM21.365,1.225L0.895,21.225L3.691,24.086L24.16,4.086L21.365,1.225ZM0.895,24.086L21.365,44.087L24.16,41.226L3.691,21.225L0.895,24.086Z" fill="#FFFFFF"/>
</svg>
