<svg width="28" height="28" viewBox="0 0 28 28" fill="none" xmlns="http://www.w3.org/2000/svg" xmlns:xlink="http://www.w3.org/1999/xlink">
<path d="M15.333,12.667L15.333,6C15.333,5.647 15.193,5.308 14.943,5.058C14.693,4.807 14.353,4.667 14,4.667C13.646,4.667 13.307,4.807 13.057,5.058C12.807,5.308 12.667,5.647 12.667,6L12.667,14C12.667,14.354 12.807,14.693 13.057,14.943C13.307,15.193 13.646,15.334 14,15.334L20.667,15.334C21.02,15.334 21.359,15.193 21.609,14.943C21.859,14.693 22,14.354 22,14C22,13.647 21.859,13.308 21.609,13.058C21.359,12.807 21.02,12.667 20.667,12.667L15.333,12.667ZM14,27.334C6.636,27.334 0.667,21.364 0.667,14C0.667,6.636 6.636,0.667 14,0.667C21.364,0.667 27.333,6.636 27.333,14C27.333,21.364 21.364,27.334 14,27.334Z" fill="#000000"/>
</svg>
