<svg width="16" height="22" viewBox="0 0 16 22" fill="none" xmlns="http://www.w3.org/2000/svg" xmlns:xlink="http://www.w3.org/1999/xlink">
<path d="M8.408,0.838C6.417,0.84 4.508,1.709 3.1,3.252C1.692,4.796 0.9,6.889 0.898,9.071C0.898,16.116 7.725,21.438 8.016,21.661C8.131,21.749 8.268,21.796 8.408,21.796C8.548,21.796 8.685,21.749 8.8,21.661C9.091,21.438 15.918,16.116 15.918,9.071C15.916,6.889 15.124,4.796 13.716,3.252C12.308,1.709 10.399,0.84 8.408,0.838L8.408,0.838ZM8.409,6.078C8.949,6.078 9.477,6.253 9.926,6.582C10.375,6.911 10.725,7.379 10.932,7.926C11.138,8.473 11.193,9.075 11.087,9.656C10.982,10.237 10.722,10.77 10.34,11.189C9.958,11.608 9.471,11.893 8.941,12.008C8.412,12.124 7.863,12.064 7.364,11.838C6.865,11.611 6.438,11.227 6.138,10.735C5.838,10.243 5.678,9.664 5.678,9.072C5.678,8.679 5.748,8.289 5.886,7.926C6.023,7.563 6.224,7.233 6.478,6.955C6.731,6.677 7.032,6.456 7.364,6.306C7.695,6.155 8.05,6.078 8.409,6.078L8.409,6.078Z" fill="#000000"/>
</svg>
