<svg width="28" height="28" viewBox="0 0 28 28" fill="none" xmlns="http://www.w3.org/2000/svg" xmlns:xlink="http://www.w3.org/1999/xlink">
<path d="M15.334,12.667L15.334,6C15.334,5.647 15.193,5.308 14.943,5.058C14.693,4.807 14.354,4.667 14,4.667C13.647,4.667 13.308,4.807 13.058,5.058C12.807,5.308 12.667,5.647 12.667,6L12.667,14C12.667,14.354 12.807,14.693 13.058,14.943C13.308,15.193 13.647,15.334 14,15.334L20.667,15.334C21.021,15.334 21.36,15.193 21.61,14.943C21.86,14.693 22,14.354 22,14C22,13.647 21.86,13.308 21.61,13.058C21.36,12.807 21.021,12.667 20.667,12.667L15.334,12.667ZM14,27.334C6.636,27.334 0.667,21.364 0.667,14C0.667,6.636 6.636,0.667 14,0.667C21.364,0.667 27.334,6.636 27.334,14C27.334,21.364 21.364,27.334 14,27.334Z" fill="#000000"/>
</svg>
