<svg width="48" height="34" viewBox="0 0 48 34" fill="none" xmlns="http://www.w3.org/2000/svg" xmlns:xlink="http://www.w3.org/1999/xlink">
<path d="M23.36,34C22.016,34 20.88,33.517 19.952,32.55C19.024,31.583 18.56,30.4 18.56,29C18.56,27.6 19.024,26.417 19.952,25.45C20.88,24.483 22.016,24 23.36,24C24.704,24 25.84,24.483 26.768,25.45C27.696,26.417 28.16,27.6 28.16,29C28.16,30.4 27.696,31.583 26.768,32.55C25.84,33.517 24.704,34 23.36,34ZM12.512,22.7L8.48,18.4C10.368,16.433 12.585,14.875 15.129,13.726C17.674,12.577 20.418,12.001 23.36,12C26.303,11.999 29.047,12.582 31.593,13.75C34.139,14.918 36.355,16.501 38.24,18.5L34.208,22.7C32.8,21.233 31.168,20.083 29.312,19.25C27.456,18.417 25.472,18 23.36,18C21.248,18 19.264,18.417 17.408,19.25C15.552,20.083 13.92,21.233 12.512,22.7ZM4.352,14.2L0.32,10C3.264,6.867 6.704,4.417 10.64,2.65C14.576,0.883 18.816,0 23.36,0C27.904,0 32.144,0.883 36.08,2.65C40.016,4.417 43.456,6.867 46.4,10L42.368,14.2C39.904,11.633 37.049,9.625 33.801,8.176C30.554,6.727 27.074,6.001 23.36,6C19.647,5.999 16.167,6.724 12.921,8.176C9.675,9.628 6.819,11.636 4.352,14.2Z" fill="#000000"/>
</svg>
