<svg width="34" height="42" viewBox="0 0 34 42" fill="none" xmlns="http://www.w3.org/2000/svg" xmlns:xlink="http://www.w3.org/1999/xlink">
<path d="M32.733,17.625L32.733,14.25L10.774,14.25L10.774,4.125C10.774,3.23 10.366,2.371 9.639,1.739C8.913,1.106 7.927,0.75 6.899,0.75C5.872,0.75 4.886,1.106 4.159,1.739C3.433,2.371 3.024,3.23 3.024,4.125C3.024,5.02 3.433,5.879 4.159,6.511C4.886,7.144 5.872,7.5 6.899,7.5L6.899,14.25L-0.851,14.25L-0.851,17.625L6.899,17.625L6.899,31.575C6.899,36.885 11.834,41.182 17.879,41.25C23.924,41.16 28.729,36.84 28.625,31.575C28.625,27.998 26.688,24.622 23.459,22.395C22.9,21.988 22.294,21.634 21.65,21.337C21.082,21.112 20.462,21 19.842,21C18.008,21 16.329,21.878 15.424,23.25C14.934,23.925 14.675,24.712 14.675,25.5C14.701,27.975 17,30 19.868,30C21.469,30 22.968,29.302 23.949,28.2C24.492,29.257 24.75,30.405 24.75,31.575C24.854,34.95 21.805,37.763 17.879,37.875C13.926,37.875 10.749,35.018 10.774,31.575L10.774,17.625L32.733,17.625Z" fill="#000000"/>
</svg>
