<svg width="26" height="46" viewBox="0 0 26 46" fill="none" xmlns="http://www.w3.org/2000/svg" xmlns:xlink="http://www.w3.org/1999/xlink">
<path d="M24.122,4.113C24.927,3.357 24.967,2.092 24.211,1.286C23.455,0.481 22.189,0.441 21.384,1.197L24.122,4.113ZM1.448,22.656L0.079,21.198C-0.323,21.576 -0.552,22.103 -0.552,22.656C-0.552,23.208 -0.323,23.736 0.079,24.114L1.448,22.656ZM21.384,44.114C22.189,44.87 23.455,44.83 24.211,44.025C24.967,43.22 24.927,41.954 24.122,41.198L21.384,44.114ZM21.384,1.197L0.079,21.198L2.817,24.114L24.122,4.113L21.384,1.197ZM0.079,24.114L21.384,44.114L24.122,41.198L2.817,21.198L0.079,24.114Z" fill="#010101"/>
</svg>
