<svg width="34" height="36" viewBox="0 0 34 36" fill="none" xmlns="http://www.w3.org/2000/svg" xmlns:xlink="http://www.w3.org/1999/xlink">
<path d="M-0.667,36L-0.667,32C0.389,32 1.181,31.667 1.708,31C2.236,30.333 3.278,30 4.833,30C6.389,30 7.458,30.333 8.042,31C8.625,31.667 9.417,32 10.417,32C11.417,32 12.208,31.667 12.792,31C13.375,30.333 14.445,30 16,30C17.556,30 18.625,30.333 19.208,31C19.792,31.667 20.583,32 21.583,32C22.583,32 23.375,31.667 23.958,31C24.542,30.333 25.611,30 27.167,30C28.722,30 29.764,30.333 30.292,31C30.82,31.667 31.611,32 32.667,32L32.667,36C31.028,36 29.952,35.667 29.438,35C28.925,34.333 28.168,34 27.167,34C26.166,34 25.374,34.333 24.792,35C24.21,35.667 23.14,36 21.583,36C20.027,36 18.957,35.667 18.375,35C17.793,34.333 17.001,34 16,34C14.999,34 14.207,34.333 13.625,35C13.043,35.667 11.973,36 10.417,36C8.86,36 7.791,35.667 7.208,35C6.626,34.333 5.835,34 4.833,34C3.832,34 3.075,34.333 2.562,35C2.048,35.667 0.972,36 -0.667,36ZM-0.667,27L-0.667,23C0.389,23 1.181,22.667 1.708,22C2.236,21.333 3.278,21 4.833,21C6.389,21 7.466,21.333 8.063,22C8.661,22.667 9.446,23 10.417,23C11.417,23 12.208,22.667 12.792,22C13.375,21.333 14.445,21 16,21C17.556,21 18.625,21.333 19.208,22C19.792,22.667 20.583,23 21.583,23C22.583,23 23.375,22.667 23.958,22C24.542,21.333 25.611,21 27.167,21C28.722,21 29.764,21.333 30.292,22C30.82,22.667 31.611,23 32.667,23L32.667,27C31.028,27 29.952,26.667 29.438,26C28.925,25.333 28.168,25 27.167,25C26.166,25 25.395,25.333 24.853,26C24.312,26.667 23.222,27 21.583,27C20,27 18.924,26.667 18.355,26C17.786,25.333 17.001,25 16,25C14.945,25 14.16,25.333 13.647,26C13.133,26.667 12.057,27 10.417,27C8.777,27 7.686,26.667 7.145,26C6.604,25.333 5.833,25 4.833,25C3.833,25 3.077,25.333 2.563,26C2.05,26.667 0.973,27 -0.667,27ZM7.5,16.8L13.042,10.15L11.375,8.15C10.458,7.05 9.486,6.25 8.458,5.75C7.431,5.25 6.167,5 4.667,5L4.667,0C6.75,0 8.472,0.275 9.833,0.826C11.195,1.377 12.528,2.435 13.833,4L24.5,16.8C24.028,17.167 23.57,17.459 23.125,17.676C22.681,17.893 22.167,18.001 21.583,18C20.583,18 19.792,17.667 19.208,17C18.625,16.333 17.556,16 16,16C14.445,16 13.375,16.333 12.792,17C12.208,17.667 11.417,18 10.417,18C9.833,18 9.32,17.892 8.875,17.676C8.431,17.46 7.972,17.168 7.5,16.8ZM23.833,0C25,0 25.986,0.492 26.792,1.476C27.597,2.46 28,3.635 28,5C28,6.4 27.597,7.583 26.792,8.55C25.986,9.517 25,10 23.833,10C22.667,10 21.681,9.517 20.875,8.55C20.07,7.583 19.667,6.4 19.667,5C19.667,3.633 20.07,2.458 20.875,1.474C21.681,0.49 22.667,-0.001 23.833,0Z" fill="#000000"/>
</svg>
